<svg width="24" height="24" viewBox="0 0 24 24" fill="none" xmlns="http://www.w3.org/2000/svg">
<path fill-rule="evenodd" clip-rule="evenodd" d="M22.5 4.5V10.3246C22.5 14.2 20.6284 17.8368 17.4749 20.0894L12 24L6.52514 20.0894C3.37159 17.8368 1.5 14.2 1.5 10.3246V4.5L12 0L22.5 4.5ZM12 21.235L7.83293 18.2585C5.27067 16.4283 3.75 13.4734 3.75 10.3246V5.98364L12 2.44793L20.25 5.98364V10.3246C20.25 13.4734 18.7293 16.4283 16.1671 18.2585L12 21.235Z" fill="white"/>
<path d="M13.125 13.5V6H10.875V13.5H13.125Z" fill="white"/>
<path d="M10.875 18H13.125V15.75H10.875V18Z" fill="white"/>
</svg>
